<?xml version="1.0" encoding="UTF-8"?>
<svg width="84px" height="81px" viewBox="0 0 84 81" version="1.1" xmlns="http://www.w3.org/2000/svg" xmlns:xlink="http://www.w3.org/1999/xlink">
  <path d="M43.25,1.26 C65.2475016,1.26 83.08,19.0924984 83.08,41.09 C83.08,63.0875016 65.2475016,80.92 43.25,80.92 C21.2524984,80.92 3.42,63.0875016 3.42,41.09 C3.45853036,19.108478 21.268478,1.29853036 43.25,1.26 L43.25,1.26 L43.25,1.26 Z" id="Shape" fill="#000000"></path>
  <path d="M39.83,-2.84217094e-14 C55.9397312,-6.31088724e-30 70.4631945,9.70426795 76.6281218,24.5877189 C82.793049,39.4711698 79.3853633,56.6027629 67.9940631,67.9940631 C56.6027629,79.3853633 39.4711698,82.793049 24.5877189,76.6281218 C9.70426795,70.4631945 0,55.9397312 0,39.83 C0.0385303639,17.848478 17.848478,0.0385303639 39.83,-5.68434189e-14 L39.83,-5.68434189e-14 L39.83,-2.84217094e-14 Z" fill="#FFFFFF"></path>
  <path d="M70.72,27.77 L70.32,24.07 C62.89,22.19 60.32,27.61 60.32,30.85 C60.32,34.09 63.08,39.56 69.89,37.7 L70.58,34.09 C65.81,36.09 63.79,33.09 63.76,30.7 C63.76,28.83 66.1,25.24 70.68,27.78 L70.68,27.78 L70.72,27.77 Z M54.33,23.95 L54.33,37.85 L57.93,37.79 L57.93,23.89 L54.33,23.95 L54.33,23.95 Z M35.83,37.41 L38.83,23.67 L40.83,23.67 L43.96,31.81 L46.88,23.81 L49.09,23.81 L51.62,37.71 L48.19,38.04 L47.19,31.66 L44.74,38.04 L42.74,38.04 L40.29,31.66 L39.15,38.04 L35.86,37.39 L35.86,37.39 L35.83,37.41 Z M19.21,27.76 L18.81,24.06 C11.38,22.18 8.81,27.6 8.81,30.84 C8.81,34.08 11.57,39.55 18.38,37.69 L19.07,34.08 C14.3,36.08 12.28,33.08 12.25,30.69 C12.25,28.82 14.59,25.23 19.17,27.77 L19.17,27.77 L19.21,27.76 Z" fill="#000000"></path>
  <path d="M43.52,41.94 L43.52,55.84 L47.12,55.78 L47.12,41.88 L43.52,41.94 L43.52,41.94 Z M21.96,42.07 L21.96,55.65 L30.08,55.65 L31.22,52.81 L25.52,52.81 L25.52,50.26 L29.33,50.26 L29.33,47.26 L25.53,47.26 L25.53,44.64 L31.01,44.64 L30.22,42.03 L21.96,42.03 L21.96,42.07 Z M50.91,42.07 L50.91,55.65 L59.03,55.65 L60.17,52.81 L54.47,52.81 L54.47,50.26 L58.24,50.26 L58.24,47.26 L54.47,47.26 L54.47,44.64 L59.95,44.64 L59.16,42.03 L50.9,42.03 L50.91,42.07 Z M33.33,41.99 L33.33,55.73 L40.33,55.73 L41.47,52.87 L36.93,52.87 L36.93,41.99 L33.33,41.99 Z M62.44,41.99 L62.44,55.73 L65.87,55.73 L65.87,50.99 L69.47,50.99 L69.47,48.26 L65.87,48.26 L65.87,45.13 L70.75,45.13 L70.09,42.02 L62.43,42.02 L62.44,41.99 Z M9.11,55.4 L9.11,41.67 L13.2,41.67 C17,41.67 18.73,43.6 18.76,45.76 C18.8622377,47.4552935 17.9187029,49.0410662 16.38,49.76 L19.91,54.76 L16.61,56.09 L12.56,49.8 L12.56,55.44 L9.11,55.44 L9.11,55.4 Z M12.39,44.61 L12.39,48.7 C13.72,48.7 15.32,48.3 15.33,46.7 C15.33,44.39 13.55,44.55 12.39,44.57 L12.39,44.57 L12.39,44.61 Z" fill="#000000"></path>
  <path d="M27.41,23.59 C31.430633,23.59 34.69,26.849367 34.69,30.87 C34.69,34.890633 31.430633,38.15 27.41,38.15 C23.389367,38.15 20.13,34.890633 20.13,30.87 C20.1355084,26.8516509 23.3916509,23.5955084 27.41,23.59 L27.41,23.59 L27.41,23.59 Z M30.53,26.59 C31.13213,28.1835048 31.3280222,29.9018579 31.1,31.59 C31.6919044,31.7560776 32.3180956,31.7560776 32.91,31.59 C32.91,29.13 32.4,27.72 30.53,26.49 L30.53,26.49 L30.53,26.59 Z" fill="#000000"></path>
</svg>
