<?xml version="1.0" encoding="UTF-8"?>
<svg width="51px" height="53px" viewBox="0 0 51 53" version="1.1" xmlns="http://www.w3.org/2000/svg" xmlns:xlink="http://www.w3.org/1999/xlink">
  <path d="M50.0978032,11.8652477 C50.0992719,9.97882592 49.8376876,8.10141357 49.3206065,6.28724254 C48.6574672,4.0485708 46.98293,2.25041003 44.7970791,1.42976342 C40.4530034,-0.0885909159 35.7223688,-0.0885909159 31.3782931,1.42976342 C29.1906321,2.24770505 27.5150781,4.04695765 26.8547656,6.28724254 C25.8115408,9.93481059 25.8115408,13.8017567 26.8547656,17.4493247 C27.5153617,19.6894479 29.1908136,21.4885909 31.3782931,22.3068039 C33.5339936,23.0615128 35.8016678,23.4467574 38.0856621,23.4462875 C40.3707926,23.4465875 42.6396578,23.0620573 44.7970791,22.3088278 C46.9825692,21.4876425 48.6569042,19.6896989 49.3206065,17.4513487 C49.8382263,15.6345264 50.0998138,13.7543664 50.0978032,11.8652477 L50.0978032,11.8652477 Z M42.8439677,11.8652477 C42.8477032,12.7865904 42.7112108,13.7031369 42.4391778,14.5834121 C42.0604693,15.7770977 41.0597036,16.6683925 39.8303067,16.9069062 C38.6799303,17.1297857 37.4974659,17.1297857 36.3470894,16.9069062 C35.1205101,16.6667444 34.1225851,15.7766822 33.7442902,14.585436 C33.1917301,12.8147587 33.1917301,10.9177607 33.7442902,9.14708336 C34.1225851,7.95583718 35.1205101,7.06577497 36.3470894,6.82561314 C37.4975425,6.60353367 38.6798536,6.60353367 39.8303067,6.82561314 C41.0564137,7.06720718 42.0533697,7.95787296 42.431082,9.14910731 C42.7032073,10.0293615 42.8397018,10.9459222 42.8358719,11.8672717 L42.8439677,11.8652477 Z M23.6083504,42.2265161 C24.6463007,38.5782105 24.6463007,34.7127396 23.6083504,31.0644339 C22.9461967,28.8258807 21.2722836,27.0275855 19.086847,26.2069548 C14.7429344,24.6876393 10.0119735,24.6876393 5.66806092,26.2069548 C3.48003674,27.0243531 1.80427824,28.8238253 1.1445335,31.0644339 C0.100550661,34.7118957 0.100550661,38.5790544 1.1445335,42.2265161 C1.80456221,44.4669628 3.48021841,46.2663252 5.66806092,47.0839952 C10.0121367,48.6023496 14.7427712,48.6023496 19.086847,47.0839952 C21.2726979,46.2633486 22.9472351,44.4651879 23.6103744,42.2265161 L23.6083504,42.2265161 Z M17.1337356,36.646487 C17.1372685,37.5684785 17.0007829,38.4856615 16.7289456,39.3666753 C16.3500323,40.5571362 15.3522242,41.4463181 14.1261464,41.6861216 C12.9757652,41.9089509 11.7933104,41.9089509 10.6429291,41.6861216 C9.41356254,41.449402 8.41194271,40.5595909 8.03203409,39.3666753 C7.48011493,37.5959003 7.48011493,35.6990976 8.03203409,33.9283226 C8.41094746,32.7378618 9.40875552,31.8486798 10.6348333,31.6088764 C11.7852673,31.3865974 12.9676166,31.3865974 14.1180506,31.6088764 C15.3449002,31.848012 16.3436155,32.7373109 16.7228738,33.9283226 C16.9945084,34.8086884 17.1309917,35.7251737 17.1276637,36.646487 L17.1337356,36.646487 Z M17.1337356,11.8207208 L24.3875711,11.8207208 C24.3844561,9.94858126 24.1229221,8.08583267 23.6103744,6.28521859 C22.9476571,4.04698702 21.2739464,2.24890933 19.0888709,1.42773947 C14.7440996,-0.0906062438 10.0128322,-0.0906062438 5.66806092,1.42773947 C3.48058143,2.24595245 1.80512955,4.04509541 1.1445335,6.28521859 C0.101200425,9.93277147 0.101200425,13.7997479 1.1445335,17.4473008 C1.80512955,19.687424 3.48058143,21.4865669 5.66806092,22.3047799 C7.82389733,23.0589623 10.0914813,23.4441916 12.37543,23.4442636 C14.6613097,23.443601 16.9307916,23.0583981 19.0888709,22.3047799 C21.2745413,21.4838639 22.9489774,19.6858117 23.6123983,17.4473008 C23.7014521,17.1396605 23.7824101,16.8219004 23.8552723,16.5081882 L17.0183704,13.3204675 C16.950406,13.7486784 16.851651,14.1714309 16.7228738,14.585436 C16.3452348,15.7747864 15.3502079,16.6643389 14.1261464,16.9069062 C12.9757652,17.1297355 11.7933104,17.1297355 10.6429291,16.9069062 C9.41326265,16.6694198 8.41170603,15.7788884 8.03203409,14.585436 C7.47998686,12.8146805 7.47998686,10.9178388 8.03203409,9.14708336 C8.41094746,7.95662249 9.40875552,7.06744051 10.6348333,6.82763709 C11.7852386,6.6050583 12.9676453,6.6050583 14.1180506,6.82763709 C15.3454018,7.06713094 16.3442342,7.95731024 16.7228738,9.14910731 C16.99009,10.0152129 17.1265234,10.9163552 17.1276637,11.8227448 L17.1337356,11.8207208 Z M26.842622,31.0664579 C26.3262714,32.8814266 26.0653713,34.7594986 26.0674492,36.646487 L26.0674492,53 L33.3212847,53 L33.3212847,36.646487 C33.316854,35.7250943 33.4533621,34.808443 33.7260746,33.9283226 C34.104988,32.7378618 35.1027961,31.8486798 36.3288739,31.6088764 C37.4793031,31.3865475 38.6616619,31.3865475 39.8120912,31.6088764 C41.0379673,31.8490861 42.0355965,32.7381087 42.4148904,33.9283226 C42.9661701,35.6991949 42.9661701,37.595803 42.4148904,39.3666753 C42.0390944,40.5521987 41.0494362,41.4403336 39.8303067,41.6861216 C38.6798775,41.9084504 37.4975187,41.9084504 36.3470894,41.6861216 C36.1119376,41.6428232 35.881974,41.5749874 35.6609705,41.4837266 L38.1200693,48.2396705 C40.3944787,48.2361133 42.6521694,47.8509376 44.7991031,47.1001868 C46.9851345,46.2798099 48.659773,44.4815404 49.3226305,42.2427077 C50.358977,38.5941785 50.358977,34.7291547 49.3226305,31.0806255 C48.660055,28.8416318 46.9853152,27.0432535 44.7991031,26.2231464 C40.4551905,24.7038309 35.7242296,24.7038309 31.380317,26.2231464 C29.1921111,27.0402728 27.5162502,28.839855 26.8567896,31.0806255 L26.842622,31.0664579 Z" fill="#000000"></path>
</svg>
