<?xml version="1.0" encoding="UTF-8"?>
<svg width="126px" height="97px" viewBox="0 0 126 97" version="1.1" xmlns="http://www.w3.org/2000/svg" xmlns:xlink="http://www.w3.org/1999/xlink">
  <g stroke="none" fill="none" fill-rule="evenodd">
    <path d="M29,96.1023432 L29,71 L35.2890624,71 C37.8286583,71 39.8441329,71.6288999 41.3355466,72.8867187 C42.8269603,74.1445375 43.5726559,75.8455621 43.5726559,77.9898436 C43.5726559,79.4513092 43.207295,80.7150986 42.4765622,81.7812498 C41.7458294,82.8474009 40.6976628,83.6440075 39.332031,84.1710935 C40.1346392,84.6981794 40.9192668,85.4169222 41.6859372,86.3273434 C42.4526077,87.2377646 43.5307219,88.8249883 44.9203122,91.0890621 C45.7947957,92.51459 46.4955699,93.5867147 47.0226559,94.3054683 L48.3523433,96.1023432 L44.0757809,96.1023432 L42.9796872,94.4492183 C42.9437495,94.3893221 42.8718753,94.2875002 42.7640622,94.1437495 L42.063281,93.1554683 L40.9492185,91.3226558 L39.7453123,89.3640621 C39.0026002,88.3338487 38.3227893,87.513284 37.7058592,86.9023434 C37.088929,86.2914029 36.5319034,85.8511729 36.0347655,85.5816403 C35.5376276,85.3121077 34.7020891,85.1773435 33.5281249,85.1773435 L32.5937499,85.1773435 L32.5937499,96.1023432 L29,96.1023432 Z M33.6718749,74.0546874 L32.5937499,74.0546874 L32.5937499,81.978906 L33.9593749,81.978906 C35.7802173,81.978906 37.0290329,81.8231784 37.7058592,81.5117185 C38.3826855,81.2002586 38.9097635,80.7300811 39.2871092,80.1011717 C39.6644548,79.4722623 39.8531248,78.7565143 39.8531248,77.9539061 C39.8531248,77.1632772 39.6434915,76.4475291 39.2242185,75.8066405 C38.8049456,75.1657519 38.2149776,74.7135429 37.4542967,74.4499999 C36.6936158,74.1864569 35.4328212,74.0546874 33.6718749,74.0546874 Z M66.0726555,96.1023432 L63.161718,92.6882808 C62.9101543,92.9398446 62.4789086,93.3052055 61.8679681,93.7843745 L61.8320306,93.820312 C60.9815055,94.5270864 59.9303441,95.1320282 58.678515,95.6351557 C57.4266858,96.1382832 56.2497445,96.3898432 55.1476557,96.3898432 C53.4106679,96.3898432 51.9372451,95.8238333 50.7273433,94.6917964 C49.5174414,93.5597595 48.9124996,92.1791744 48.9124996,90.5499996 C48.9124996,89.3760354 49.208981,88.3158898 49.8019527,87.3695309 C50.3949244,86.423172 51.3622324,85.4588588 52.7039057,84.4765622 L52.757812,84.422656 C53.5484409,83.8356739 54.2312466,83.3864596 54.8062495,83.0749997 C52.9135317,81.0505105 51.967187,79.1099049 51.967187,77.2531249 C51.967187,75.5400955 52.5481708,74.1505261 53.7101557,73.084375 C54.8721407,72.0182238 56.3815006,71.4851562 58.2382806,71.4851562 C60.059123,71.4851562 61.5565039,72.0062448 62.730468,73.0484375 C63.9044322,74.0906301 64.4914055,75.4203043 64.4914055,77.0374999 C64.4914055,79.2296983 63.0299618,81.3619686 60.1070306,83.4343747 L59.8554681,83.632031 L63.377343,87.6749997 C64.4075565,86.5489524 65.305985,85.2013096 66.0726555,83.632031 L69.6664054,83.632031 C68.8039011,85.8601671 67.4442793,88.0523326 65.5874992,90.2085934 L70.6726554,96.1023432 L66.0726555,96.1023432 Z M60.1429681,90.9093746 L60.9515618,90.1726559 L56.8726557,85.4648435 L55.2914057,86.5789059 C53.4226464,87.8367247 52.4882808,89.1124932 52.4882808,90.4062496 C52.4882808,91.113024 52.7937464,91.7179658 53.404687,92.2210933 C54.0156275,92.7242208 54.7523389,92.9757808 55.6148432,92.9757808 C56.2856799,92.9757808 57.0433546,92.784116 57.88789,92.4007808 C58.7324255,92.0174456 59.4841106,91.5203151 60.1429681,90.9093746 Z M57.8249994,81.2062498 L59.1906244,80.2359373 C60.4604224,79.3374953 61.0953118,78.2953183 61.0953118,77.1093749 C61.0953118,76.3786421 60.828778,75.7677107 60.2957025,75.2765624 C59.7626269,74.7854141 59.0888055,74.5398437 58.2742181,74.5398437 C57.4835892,74.5398437 56.8307312,74.7674456 56.3156244,75.2226562 C55.8005177,75.6778668 55.5429682,76.2468715 55.5429682,76.9296874 C55.5429682,77.5885448 55.746612,78.3042929 56.1539057,79.076953 C56.5611994,79.8496131 57.118225,80.5593716 57.8249994,81.2062498 Z M73.1554678,96.0664057 L73.1554678,71 L81.6187489,71 C85.0328284,71 87.7341034,71.5121042 89.722655,72.5363281 C91.7112065,73.5605519 93.2924407,75.0669171 94.4664049,77.0554686 C95.6403691,79.0440202 96.2273423,81.2122276 96.2273423,83.560156 C96.2273423,85.2372477 95.9039081,86.8424399 95.2570299,88.3757809 C94.6101516,89.9091219 93.687765,91.2567646 92.4898424,92.4187496 C91.2679613,93.6166722 89.8484443,94.5210902 88.2312488,95.1320307 C87.2848899,95.5033868 86.416409,95.751952 85.6257801,95.8777339 C84.8351511,96.0035157 83.3257912,96.0664057 81.0976551,96.0664057 L73.1554678,96.0664057 Z M81.2414051,74.1984374 C82.9664137,74.1984374 84.2182241,74.2643222 84.9968738,74.3960937 C85.7755235,74.5278652 86.599083,74.7973937 87.4675769,75.2046874 C88.3360708,75.6119811 89.1057245,76.1330696 89.7765612,76.7679686 C91.5974036,78.4690188 92.5078112,80.6671738 92.5078112,83.3624997 C92.5078112,86.1057426 91.6213617,88.3757719 89.8484362,90.1726559 C89.2973918,90.7237003 88.6894552,91.1878883 88.0246081,91.5652339 C87.3597611,91.9425796 86.5302121,92.2540348 85.5359363,92.4996089 C84.5416605,92.7451831 83.1461016,92.8679683 81.3492176,92.8679683 L76.7492177,92.8679683 L76.7492177,74.1984374 L81.2414051,74.1984374 Z M0,51 L126,51 L126,54 L0,54 L0,51 Z" id="R&amp;D" fill="#000000"></path>
    <g fill-rule="nonzero">
      <path d="M0,0 L38.0319231,0 L38.0319231,35.8442308 L0,35.8442308 L0,0 Z M43.8576923,35.8442308 L81.8930769,35.8442308 L81.8930769,0 L43.8576923,0 L43.8576923,35.8442308 Z M87.7188462,35.8442308 L125.754231,35.8442308 L125.754231,0 L87.7188462,0 L87.7188462,35.8442308 Z" id="Carrés" fill="#000000"></path>
      <path d="M67.2265385,17.1069231 C67.2265385,17.1069231 70.5426923,15.6946154 70.515,11.9423077 C70.515,11.9423077 71.0203846,5.79807692 62.8788462,5.04692308 L53.8442308,5.04692308 L53.8442308,30.8076923 L64.2011538,30.8076923 C64.2011538,30.8076923 72.855,30.8353846 72.855,23.5384615 C72.8515385,23.5384615 73.0523077,18.5780769 67.2265385,17.1069231 Z M58.4273077,9.05884615 L62.1207692,9.05884615 C65.9561538,9.25961538 65.8142308,12.1153846 65.8142308,12.1153846 C65.8142308,15.6634615 61.5738462,15.7223077 61.5738462,15.7223077 L58.4273077,15.7223077 L58.4273077,9.05884615 Z M68.1196154,23.1542308 C68.1196154,27.0484615 63.2734615,26.8165385 63.2734615,26.8165385 L58.4273077,26.8165385 L58.4273077,19.7896154 L63.2734615,19.7896154 C68.265,19.7584615 68.1196154,23.1542308 68.1196154,23.1542308 Z" id="B" fill="#FFFFFF"></path>
      <path d="M23.3792308,17.1069231 C23.3792308,17.1069231 26.6953846,15.6946154 26.6676923,11.9423077 C26.6676923,11.9423077 27.1730769,5.79807692 19.0315385,5.04692308 L9.99346154,5.04692308 L9.99346154,30.8076923 L20.3503846,30.8076923 C20.3503846,30.8076923 29.0042308,30.8353846 29.0042308,23.5384615 C29.0042308,23.5384615 29.205,18.5780769 23.3792308,17.1069231 Z M14.58,9.05884615 L18.2734615,9.05884615 C22.1088462,9.25961538 21.9669231,12.1153846 21.9669231,12.1153846 C21.9669231,15.6634615 17.7265385,15.7223077 17.7265385,15.7223077 L14.58,15.7223077 L14.58,9.05884615 Z M24.2723077,23.1542308 C24.2723077,27.0484615 19.4261538,26.8165385 19.4261538,26.8165385 L14.58,26.8165385 L14.58,19.7896154 L19.4261538,19.7896154 C24.4176923,19.7584615 24.2723077,23.1542308 24.2723077,23.1542308 Z" id="B-2" fill="#FFFFFF"></path>
      <path d="M117.993462,6.885 L117.993462,11.655 C117.993462,11.655 113.348077,8.79923077 108.214615,8.74038462 C108.214615,8.74038462 98.6365385,8.55346154 98.2038462,17.9203846 C98.2038462,17.9203846 97.8576923,26.5361538 108.096923,27.0276923 C108.096923,27.0276923 112.396154,27.5469231 118.221923,23.8257692 L118.221923,28.7619231 C118.221923,28.7619231 110.405769,33.4073077 101.346923,29.8280769 C101.346923,29.8280769 93.7315385,27.0588462 93.4442308,17.9238462 C93.4442308,17.9238462 93.1257692,8.54307692 103.281923,5.42769231 C103.281923,5.42769231 105.992308,4.38923077 110.869615,4.84961538 C110.869615,4.84615385 113.784231,5.13692308 117.993462,6.885 Z" id="C" fill="#FFFFFF"></path>
    </g>
  </g>
</svg>
