<?xml version="1.0" encoding="UTF-8"?>
<svg width="72px" height="100px" viewBox="0 0 72 100" version="1.1" xmlns="http://www.w3.org/2000/svg" xmlns:xlink="http://www.w3.org/1999/xlink">
  <path d="M31.68,53.2568675 L39.7445783,53.2568675 L39.7445783,7.87951807 L31.68,17.8322892 L31.68,53.2568675 Z M52.9908434,12.5783133 L44.9262651,22.5281928 L44.9262651,86.0877108 L52.9908434,86.0877108 L52.9908434,12.5783133 Z M72,66.5031325 L72,58.4414458 L58.1783133,58.4414458 L58.1783133,66.5060241 L72,66.5031325 Z M46.1204819,0 L44.9233735,1.4746988 L44.9233735,14.2901205 L52.3893976,5.06024096 L46.1204819,0 Z M26.4925301,37.0525301 L26.4925301,24.2371084 L2.99566265,53.2568675 L13.3706024,53.2568675 L26.4925301,37.0525301 Z M31.68,99.339759 L39.7445783,99.339759 L39.7445783,71.6906024 L31.68,71.6906024 L31.68,99.339759 Z M39.7445783,66.5031325 L39.7445783,58.4414458 L0,58.4414458 L0,66.5060241 L39.7445783,66.5031325 Z M44.9262651,99.339759 L65.0862651,99.339759 L65.0862651,91.2751807 L44.9262651,91.2751807 L44.9262651,99.339759 Z M18.4337349,91.2751807 L26.4983133,91.2751807 L26.4983133,99.339759 L18.4337349,99.339759 L18.4337349,91.2751807 Z" fill="#000000"></path>
</svg>
