<?xml version="1.0" encoding="UTF-8"?>
<svg width="236px" height="39px" viewBox="0 0 236 39" version="1.1" xmlns="http://www.w3.org/2000/svg" xmlns:xlink="http://www.w3.org/1999/xlink">
  <polygon points="209.311873 37.5922742 215.737151 37.5922742 215.737151 27.9308763 219.837157 23.3438729 228.235679 37.5922742 235.702829 37.5922742 223.95887 18.4466756 234.99404 5.8159398 227.083304 5.8159398 215.737151 19.5769498 215.737151 5.8159398 209.311873 5.8159398"></polygon>
  <path d="M187.496475,31.8197458 C186.691391,31.5470435 185.996415,31.1330569 185.413913,30.5785753 C184.829833,30.0252776 184.368883,29.3228027 184.028696,28.4735184 C183.688508,27.6242341 183.518415,26.62301 183.518415,25.4714247 L183.518415,5.77173913 L177.159833,5.77173913 L177.159833,26.424107 C177.159833,28.1960803 177.480288,29.7995385 178.121987,31.2325084 C178.76408,32.6654783 179.660722,33.8841538 180.811913,34.8885351 C181.963893,35.8937057 183.328194,36.6691906 184.908368,37.2153846 C186.487358,37.7619732 188.214341,38.0354649 190.088923,38.0354649 C191.963505,38.0354649 193.690094,37.7619732 195.269873,37.2153846 C196.849258,36.668796 198.211191,35.893311 199.354883,34.8885351 C200.498575,33.8841538 201.391666,32.6654783 202.033759,31.2325084 C202.675458,29.7995385 202.996702,28.1964749 202.996702,26.424107 L202.996702,5.77173913 L196.681532,5.77173913 L196.681532,25.4714247 C196.681532,26.62301 196.510649,27.6242341 196.171645,28.4735184 C195.831853,29.3228027 195.369719,30.0252776 194.786823,30.5785753 C194.203137,31.1326622 193.508555,31.5466488 192.703472,31.8197458 C191.898783,32.0932375 191.03095,32.229786 190.099973,32.229786 C189.168997,32.229786 188.301164,32.0932375 187.496475,31.8197458"></path>
  <path d="M164.273759,35.5760134 C164.487659,36.06301 164.780094,36.4915987 165.14909,36.86099 C165.518876,37.2303813 165.950227,37.5184749 166.446301,37.7248763 C166.940401,37.9320669 167.460943,38.0354649 168.007926,38.0354649 C168.553726,38.0354649 169.071505,37.9320669 169.558896,37.7248763 C170.045893,37.5184749 170.474876,37.2299866 170.844268,36.86099 C171.213659,36.4919933 171.505304,36.0634047 171.719599,35.5760134 C171.933104,35.0882274 172.040448,34.5641338 172.040448,34.0021538 C172.040448,33.4563545 171.933104,32.9429164 171.719599,32.4630234 C171.505304,31.9827358 171.213659,31.5620401 170.844268,31.1997525 C170.474876,30.8382542 170.046288,30.5501605 169.558896,30.3358662 C169.071505,30.1215719 168.553726,30.0146221 168.007926,30.0146221 C167.460943,30.0146221 166.940401,30.1215719 166.446301,30.3358662 C165.950227,30.5501605 165.518482,30.8382542 165.14909,31.1997525 C164.780094,31.5620401 164.487659,31.9827358 164.273759,32.4630234 C164.05986,32.943311 163.953304,33.4567492 163.953304,34.0021538 C163.95291,34.5637391 164.05986,35.0878328 164.273759,35.5760134"></path>
  <polygon points="154.069719 37.5922742 163.044428 5.8159398 155.930488 5.8159398 149.925906 29.7032441 149.704508 29.7032441 143.56614 5.8159398 136.364589 5.8159398 145.338508 37.5922742"></polygon>
  <path d="M115.069732,31.4428562 C114.006154,30.9187625 113.116221,30.1910301 112.399933,29.2600535 C111.682856,28.3298662 111.140214,27.2295853 110.771217,25.9588161 C110.401826,24.6884415 110.21713,23.2996722 110.21713,21.792903 L110.21713,21.6157057 C110.21713,20.1239331 110.401826,18.7391104 110.771217,17.4612375 C111.140214,16.1837592 111.682856,15.0791371 112.399933,14.1485552 C113.116221,13.2175786 114.006154,12.4902408 115.069732,11.9657525 C116.133311,11.4420535 117.359485,11.1792174 118.74786,11.1792174 C120.136629,11.1792174 121.359251,11.4420535 122.415331,11.9657525 C123.471411,12.4902408 124.362134,13.2175786 125.08592,14.1485552 C125.809311,15.0791371 126.356294,16.1837592 126.725291,17.4612375 C127.095077,18.739505 127.279378,20.1239331 127.279378,21.6157057 L127.279378,21.792903 C127.279378,23.2996722 127.095077,24.6884415 126.725291,25.9588161 C126.356294,27.2299799 125.809311,28.3298662 125.08592,29.2600535 C124.362134,30.1910301 123.471411,30.9187625 122.415331,31.4428562 C121.359251,31.9677391 120.136629,32.229786 118.74786,32.229786 C117.359485,32.229786 116.133311,31.9677391 115.069732,31.4428562 M112.377438,6.64667559 C110.508776,7.49674916 108.920709,8.65583278 107.613632,10.1258997 C106.305766,11.5959666 105.308488,13.3241338 104.621799,15.3111906 C103.93511,17.2978528 103.591371,19.4297458 103.591371,21.7037124 C103.591371,23.9934649 103.93511,26.1285151 104.621799,28.1072843 C105.308488,30.0876321 106.305766,31.816194 107.613632,33.2933645 C108.920709,34.7709298 110.508776,35.930408 112.377438,36.7717993 C114.2461,37.6135853 116.369311,38.0350702 118.74786,38.0350702 C121.111806,38.0350702 123.231465,37.6135853 125.10802,36.7717993 C126.983786,35.9300134 128.575405,34.7709298 129.882876,33.2933645 C131.189953,31.8165886 132.187625,30.0876321 132.875104,28.1072843 C133.561793,26.1285151 133.904348,23.9934649 133.904348,21.7037124 C133.904348,19.4293512 133.561793,17.2978528 132.875104,15.3111906 C132.187625,13.3241338 131.189559,11.5959666 129.882876,10.1258997 C128.575405,8.65583278 126.983786,7.49674916 125.10802,6.64667559 C123.231465,5.79699666 121.111806,5.37314381 118.74786,5.37314381 C116.369311,5.37353846 114.2461,5.79699666 112.377438,6.64667559"></path>
  <path d="M77.8211973,17.6601405 C78.1602007,16.3968696 78.6775853,15.2855385 79.3717726,14.3253579 C80.0663545,13.3647826 80.9527358,12.5932441 82.0309164,12.0095585 C83.1094916,11.4262676 84.3944682,11.1342274 85.8870301,11.1342274 C86.8318194,11.1342274 87.6889967,11.2557793 88.4573779,11.5000669 C89.2253645,11.7435652 89.9088963,12.0762542 90.5071839,12.4973445 C91.1050769,12.9180401 91.6331171,13.4204281 92.0909097,14.0037191 C92.549097,14.5874047 92.9476923,15.2192375 93.2882742,15.8984281 L98.9159666,12.7297926 C98.3839799,11.6216187 97.689398,10.613291 96.8334047,9.70480936 C95.9762274,8.79632776 94.9903946,8.02084281 93.8747224,7.37835452 C92.7594448,6.73586622 91.5261672,6.24058194 90.174495,5.89368562 C88.8228227,5.54639465 87.3937993,5.37314381 85.8870301,5.37314381 C83.5672843,5.37314381 81.4732776,5.7973913 79.6046154,6.64667559 C77.7355585,7.49674916 76.140388,8.65622742 74.8183144,10.1262943 C73.4958462,11.5959666 72.4768629,13.3245284 71.7605753,15.3111906 C71.0434983,17.2982475 70.6855518,19.4293512 70.6855518,21.704107 C70.6855518,23.9946488 71.006796,26.1289097 71.6496789,28.1076789 C72.2921672,30.0880268 73.2302475,31.8157993 74.4639197,33.2937592 C75.6968027,34.7705351 77.2150167,35.9308027 79.0173779,36.772194 C80.8197391,37.6135853 82.88099,38.0354649 85.1999465,38.0354649 C86.1893311,38.0354649 87.1234649,37.9312776 88.0027425,37.7248763 C88.8820201,37.5184749 89.6902609,37.2339331 90.4290435,36.8716455 C91.1674314,36.5101472 91.8328094,36.0740602 92.4235987,35.5645686 C93.014388,35.0550769 93.5092776,34.4899398 93.9086622,33.8695518 L93.9086622,37.5926689 L99.5367492,37.5926689 L99.5367492,20.1760268 L85.1549565,20.1760268 L85.1549565,25.0728294 L93.2882742,25.0728294 L93.2882742,25.3834181 C93.2882742,26.063398 93.1734314,26.8009967 92.9441405,27.5985819 C92.7152441,28.3961672 92.3166488,29.139291 91.7475652,29.8263746 C91.1788763,30.5130635 90.418388,31.085699 89.4657057,31.5438863 C88.5126288,32.0016789 87.3192107,32.2305753 85.8870301,32.2305753 C84.3944682,32.2305753 83.1094916,31.9385351 82.0309164,31.3548495 C80.9527358,30.7711639 80.0663545,29.9996254 79.3717726,29.0394448 C78.6775853,28.0788696 78.1602007,26.9714849 77.8211973,25.7157124 C77.48101,24.4599398 77.311311,23.1528629 77.311311,21.7932977 L77.311311,21.5711104 C77.311311,20.2273311 77.48101,18.923806 77.8211973,17.6601405 Z"></path>
  <path d="M13.7795585,10.7723344 C14.366796,9.3567291 13.694709,7.71183278 12.2597659,7.12380602 C10.8528428,6.54525084 9.21702341,7.23549164 8.6317592,8.65622742 C8.04649498,10.0698595 8.72331773,11.6989699 10.1310301,12.2763411 C11.5659732,12.8679197 13.1950836,12.191097 13.7795585,10.7723344 Z"></path>
  <path d="M7.46162542,14.4749298 C8.04965217,13.0597191 7.37717057,11.4148227 5.94143813,10.825612 C4.5349097,10.2482408 2.8998796,10.9384816 2.31382609,12.3592174 C1.72856187,13.7720602 2.40577926,15.4011706 3.81388629,15.9785418 C5.24961873,16.5709097 6.8771505,15.894087 7.46162542,14.4749298 Z"></path>
  <path d="M5.61348495,21.4992843 C6.20111706,20.0844682 5.5290301,18.4391773 4.09369231,17.8499666 C2.68676923,17.2722007 1.05094983,17.9620468 0.464896321,19.3827826 C-0.120367893,20.7964147 0.556454849,22.426709 1.96416722,23.0025017 C3.39989967,23.5944749 5.02861538,22.9176522 5.61348495,21.4992843 Z"></path>
  <path d="M20.8299599,12.9981538 C21.417592,11.5837324 20.7451104,9.93844147 19.3101672,9.34923077 C17.9028495,8.77107023 16.2674247,9.46131104 15.6821605,10.8824415 C15.0968963,12.2956789 15.7737191,13.9251839 17.1814314,14.5021605 C18.6167692,15.0937391 20.2458796,14.4169164 20.8299599,12.9981538 Z"></path>
  <path d="M39.0785217,10.7723344 C38.4912843,9.3567291 39.1637659,7.71183278 40.5979197,7.12380602 C42.0060268,6.54525084 43.6414515,7.23549164 44.2267157,8.65622742 C44.8119799,10.0698595 44.1347625,11.6989699 42.7278395,12.2763411 C41.292107,12.8679197 39.6633913,12.191097 39.0785217,10.7723344 Z"></path>
  <path d="M45.3964548,14.4749298 C44.8084281,13.0597191 45.4813043,11.4148227 46.9154582,10.825612 C48.3231706,10.2482408 49.9585953,10.9384816 50.5446488,12.3592174 C51.1295184,13.7720602 50.452301,15.4011706 49.0445886,15.9785418 C47.6092508,16.5709097 45.9809298,15.894087 45.3964548,14.4749298 Z"></path>
  <path d="M47.2453846,21.4992843 C46.6573579,20.0844682 47.3302341,18.4391773 48.7651773,17.8499666 C50.1717057,17.2722007 51.8083144,17.9620468 52.3927893,19.3827826 C52.9788428,20.7964147 52.3016254,22.426709 50.893913,23.0025017 C49.4585753,23.5944749 47.8294649,22.9176522 47.2453846,21.4992843 Z"></path>
  <path d="M32.0277258,12.9981538 C31.4404883,11.5837324 32.1133645,9.93844147 33.547913,9.34923077 C34.9552308,8.77107023 36.5914448,9.46131104 37.1759197,10.8824415 C37.7611839,12.2956789 37.0843612,13.9251839 35.6770435,14.5021605 C34.2409164,15.0937391 32.6133846,14.4169164 32.0277258,12.9981538 Z"></path>
  <path d="M31.4361472,9.14480268 L31.4361472,3.94648829 L27.9131171,5.06216054 C27.8045886,4.9220602 27.6905351,4.80642809 27.5606957,4.70658194 L28.9688027,0.235210702 L26.4237124,0.235605351 L23.8778328,0.235210702 L25.2954114,4.69632107 C25.1568896,4.80642809 25.0420468,4.9220602 24.9437793,5.05189967 L21.4108829,3.94648829 L21.4108829,9.14480268 L24.9382542,7.29311037 C25.0507291,7.43794649 25.1734649,7.55910368 25.3108027,7.66210702 L23.2850702,13.7724548 C23.1824615,14.1071171 23.1311572,14.4311237 23.1311572,14.7665753 C23.1311572,16.4197592 24.3514114,17.7844548 25.9394783,18.0188763 C25.9627625,18.0224281 25.9864415,18.0263746 26.0105151,18.0295318 C26.1458796,18.047291 26.2824281,18.0587358 26.4237124,18.0587358 C26.5634181,18.0587358 26.7007559,18.047291 26.8365151,18.0295318 C26.8597993,18.0263746 26.8834783,18.0224281 26.9067625,18.0188763 C28.4948294,17.7844548 29.7154783,16.4197592 29.7154783,14.7665753 C29.7154783,14.4311237 29.6641739,14.1071171 29.5710368,13.8020535 C29.5674849,13.7874515 27.5362274,7.66210702 27.5362274,7.66210702 C27.6735652,7.55910368 27.7959064,7.43794649 27.9008829,7.3006087 L31.4361472,9.14480268 Z"></path>
  <path d="M45.105204,38.4648428 C46.7078729,31.7242408 48.6590167,27.8633913 50.6740936,25.1138729 L46.8803344,23.7625953 C47.2580134,25.6896656 47.318,26.5851237 46.8957258,27.8239264 C46.2698127,27.2126154 45.6770502,26.0874716 45.2141271,24.3683813 L43.3770368,30.4893846 C44.4946823,29.7194247 45.3573846,29.2221672 46.3440067,29.1988829 C44.5941338,32.9673846 42.4085686,33.9378261 40.9921739,33.6757793 C39.263612,33.3588763 38.4683946,31.8165886 38.7363612,30.5087224 C39.1349565,28.6558462 41.0363746,28.1724013 41.9243344,30.3283679 C43.6236923,26.8637458 40.7415719,25.783592 38.8863278,26.8088896 C41.734903,23.9670234 42.0608829,21.4412709 39.7616589,18.3851104 C36.557505,20.8339064 36.520408,23.2594181 37.9616656,26.6719465 C36.0906355,24.5305819 33.1801003,25.6805886 34.2318395,29.1400803 C35.5807492,27.051204 37.3669298,28.3645953 37.0867291,30.3492843 C36.8495452,32.0782408 34.5668963,33.4741137 31.7242408,33.2274582 C27.6510702,32.8572776 27.4091505,30.046194 27.3069365,27.7201338 C28.3077659,27.5342542 30.1117057,28.4632575 31.6488629,30.621592 L32.2151839,24.1292241 C30.5426622,25.8727826 29.0228696,26.2034983 27.3345619,26.2575652 C27.8961472,24.5041405 30.4795184,21.6307023 30.4795184,21.6307023 L26.7268027,21.6307023 L22.376194,21.6307023 C22.376194,21.6307023 24.9583813,24.5041405 25.5207559,26.2575652 C23.8328428,26.2034983 22.3126555,25.8727826 20.6397391,24.1292241 L21.2056656,30.621592 C22.7444013,28.4632575 24.5467625,27.5346488 25.5483813,27.7201338 C25.4473512,30.0465886 25.2050368,32.8576722 21.1306823,33.2274582 C18.2880268,33.4741137 16.0057726,32.0782408 15.7689833,30.3492843 C15.488388,28.3645953 17.2745686,27.051204 18.6242676,29.1400803 C19.6760067,25.6805886 16.7634983,24.5305819 14.8936522,26.6719465 C16.3353043,23.2598127 16.2974181,20.834301 13.0936589,18.3851104 C10.7944348,21.4412709 11.1200201,23.9670234 13.9685953,26.8088896 C12.1133512,25.783592 9.23202007,26.8637458 10.9309833,30.3283679 C11.8189431,28.1724013 13.7219398,28.6558462 14.1189565,30.5087224 C14.3865284,31.8165886 13.5909164,33.3592709 11.8627492,33.6757793 C10.4467492,33.9378261 8.2615786,32.9673846 6.51170569,29.1988829 C7.49793311,29.2221672 8.35984615,29.7190301 9.47907023,30.4893846 L7.64079599,24.3683813 C7.17747826,26.0870769 6.58550502,27.2126154 5.95919732,27.8239264 C5.53692308,26.5851237 5.59730435,25.6896656 5.97379933,23.7625953 L2.18161873,25.1138729 C4.19590635,27.8633913 6.14665552,31.7242408 7.74971906,38.4632642 C13.3943813,37.6562074 19.7292843,37.2031505 26.4237124,37.2031505 C33.1193244,37.2031505 39.4577793,37.6562074 45.105204,38.4648428 Z"></path>
</svg>
